# xmcd CD database file
#
# Track frame offsets:
#	182
#	51340
#	121890
#	179177
#	218440
#	254265
#	291990
#
# Disc length: 4522 seconds
#
# Revision: 0
# Processed by: cddbd v1.5PL3 Copyright (c) Steve Scherf et al.
# Submitted via: CDex 1.51
#
DISCID=6c11a807
DTITLE=Tony Scott Quartet - The Clarinet Album
DYEAR=1993
DGENRE=Jazz
TTITLE0=My Funny Valentine (II t.)
TTITLE1=Speak Low
TTITLE2=Easy Living
TTITLE3=Do Nothin' Till You hear From Me
TTITLE4=I Don't Stand A Ghost Of A Chance
TTITLE5=Day Dream (III t.)
TTITLE6=I Can't Get Started
EXTD=YEAR: 1993
EXTT0=
EXTT1=
EXTT2=
EXTT3=
EXTT4=
EXTT5=
EXTT6=
PLAYORDER=
